<?xml version="1.0" encoding="UTF-8" standalone="no"?>
<svg
   width="500"
   zoomAndPan="magnify"
   viewBox="0 0 375 374.999991"
   height="500"
   preserveAspectRatio="xMidYMid meet"
   version="1.0"
   id="svg115"
   sodipodi:docname="logo.svg"
   inkscape:export-filename="logo.svg"
   inkscape:export-xdpi="96"
   inkscape:export-ydpi="96"
   inkscape:version="1.4.2 (ebf0e94, 2025-05-08)"
   xmlns:inkscape="http://www.inkscape.org/namespaces/inkscape"
   xmlns:sodipodi="http://sodipodi.sourceforge.net/DTD/sodipodi-0.dtd"
   xmlns="http://www.w3.org/2000/svg"
   xmlns:svg="http://www.w3.org/2000/svg">
  <sodipodi:namedview
     id="namedview115"
     pagecolor="#505050"
     bordercolor="#eeeeee"
     borderopacity="1"
     inkscape:showpageshadow="0"
     inkscape:pageopacity="0"
     inkscape:pagecheckerboard="0"
     inkscape:deskcolor="#505050"
     inkscape:zoom="0.70003571"
     inkscape:cx="189.27606"
     inkscape:cy="189.27606"
     inkscape:window-width="1366"
     inkscape:window-height="697"
     inkscape:window-x="-8"
     inkscape:window-y="-8"
     inkscape:window-maximized="1"
     inkscape:current-layer="g46" />
  <defs
     id="defs25">
    <g
       id="g1" />
    <clipPath
       id="10b37887d7">
      <path
         d="M 56.796875 56.796875 L 318.203125 56.796875 L 318.203125 318.203125 L 56.796875 318.203125 Z M 56.796875 56.796875 "
         clip-rule="nonzero"
         id="path1" />
    </clipPath>
    <clipPath
       id="11dd95b496">
      <path
         d="M 187.5 56.796875 C 115.316406 56.796875 56.796875 115.316406 56.796875 187.5 C 56.796875 259.683594 115.316406 318.203125 187.5 318.203125 C 259.683594 318.203125 318.203125 259.683594 318.203125 187.5 C 318.203125 115.316406 259.683594 56.796875 187.5 56.796875 Z M 187.5 56.796875 "
         clip-rule="nonzero"
         id="path2" />
    </clipPath>
    <clipPath
       id="1ac0290d9b">
      <path
         d="M 0.796875 0.796875 L 262.203125 0.796875 L 262.203125 262.203125 L 0.796875 262.203125 Z M 0.796875 0.796875 "
         clip-rule="nonzero"
         id="path3" />
    </clipPath>
    <clipPath
       id="eab85a591e">
      <path
         d="M 131.5 0.796875 C 59.316406 0.796875 0.796875 59.316406 0.796875 131.5 C 0.796875 203.683594 59.316406 262.203125 131.5 262.203125 C 203.683594 262.203125 262.203125 203.683594 262.203125 131.5 C 262.203125 59.316406 203.683594 0.796875 131.5 0.796875 Z M 131.5 0.796875 "
         clip-rule="nonzero"
         id="path4" />
    </clipPath>
    <clipPath
       id="0c70bf58e8">
      <rect
         x="0"
         width="263"
         y="0"
         height="263"
         id="rect4" />
    </clipPath>
    <clipPath
       id="6255b13ee3">
      <path
         d="M 56.796875 56.796875 L 318.195312 56.796875 L 318.195312 318.195312 L 56.796875 318.195312 Z M 56.796875 56.796875 "
         clip-rule="nonzero"
         id="path5" />
    </clipPath>
    <clipPath
       id="3728267829">
      <path
         d="M 187.496094 56.796875 C 115.3125 56.796875 56.796875 115.3125 56.796875 187.496094 C 56.796875 259.679688 115.3125 318.195312 187.496094 318.195312 C 259.679688 318.195312 318.195312 259.679688 318.195312 187.496094 C 318.195312 115.3125 259.679688 56.796875 187.496094 56.796875 Z M 187.496094 56.796875 "
         clip-rule="nonzero"
         id="path6" />
    </clipPath>
    <clipPath
       id="f4df96ad50">
      <path
         d="M 74.753906 74.753906 L 300.246094 74.753906 L 300.246094 300.246094 L 74.753906 300.246094 Z M 74.753906 74.753906 "
         clip-rule="nonzero"
         id="path7" />
    </clipPath>
    <clipPath
       id="22275ad1f1">
      <path
         d="M 187.5 74.753906 C 125.230469 74.753906 74.753906 125.230469 74.753906 187.5 C 74.753906 249.769531 125.230469 300.246094 187.5 300.246094 C 249.769531 300.246094 300.246094 249.769531 300.246094 187.5 C 300.246094 125.230469 249.769531 74.753906 187.5 74.753906 Z M 187.5 74.753906 "
         clip-rule="nonzero"
         id="path8" />
    </clipPath>
    <clipPath
       id="b7272b859e">
      <path
         d="M 0.753906 0.753906 L 226.246094 0.753906 L 226.246094 226.246094 L 0.753906 226.246094 Z M 0.753906 0.753906 "
         clip-rule="nonzero"
         id="path9" />
    </clipPath>
    <clipPath
       id="24e91d26d0">
      <path
         d="M 113.5 0.753906 C 51.230469 0.753906 0.753906 51.230469 0.753906 113.5 C 0.753906 175.769531 51.230469 226.246094 113.5 226.246094 C 175.769531 226.246094 226.246094 175.769531 226.246094 113.5 C 226.246094 51.230469 175.769531 0.753906 113.5 0.753906 Z M 113.5 0.753906 "
         clip-rule="nonzero"
         id="path10" />
    </clipPath>
    <clipPath
       id="e6f0be622f">
      <rect
         x="0"
         width="227"
         y="0"
         height="227"
         id="rect10" />
    </clipPath>
    <clipPath
       id="de2ac133e4">
      <path
         d="M 76.921875 76.921875 L 298.078125 76.921875 L 298.078125 298.078125 L 76.921875 298.078125 Z M 76.921875 76.921875 "
         clip-rule="nonzero"
         id="path11" />
    </clipPath>
    <clipPath
       id="ac893cd8d7">
      <path
         d="M 187.5 76.921875 C 126.429688 76.921875 76.921875 126.429688 76.921875 187.5 C 76.921875 248.570312 126.429688 298.078125 187.5 298.078125 C 248.570312 298.078125 298.078125 248.570312 298.078125 187.5 C 298.078125 126.429688 248.570312 76.921875 187.5 76.921875 Z M 187.5 76.921875 "
         clip-rule="nonzero"
         id="path12" />
    </clipPath>
    <clipPath
       id="53d7cb9021">
      <path
         d="M 0.921875 0.921875 L 222.078125 0.921875 L 222.078125 222.078125 L 0.921875 222.078125 Z M 0.921875 0.921875 "
         clip-rule="nonzero"
         id="path13" />
    </clipPath>
    <clipPath
       id="0b463d3a05">
      <path
         d="M 111.5 0.921875 C 50.429688 0.921875 0.921875 50.429688 0.921875 111.5 C 0.921875 172.570312 50.429688 222.078125 111.5 222.078125 C 172.570312 222.078125 222.078125 172.570312 222.078125 111.5 C 222.078125 50.429688 172.570312 0.921875 111.5 0.921875 Z M 111.5 0.921875 "
         clip-rule="nonzero"
         id="path14" />
    </clipPath>
    <clipPath
       id="48ecbfe7fd">
      <rect
         x="0"
         width="223"
         y="0"
         height="223"
         id="rect14" />
    </clipPath>
    <clipPath
       id="cd05f385a9">
      <path
         d="M 76.921875 76.921875 L 298.066406 76.921875 L 298.066406 298.066406 L 76.921875 298.066406 Z M 76.921875 76.921875 "
         clip-rule="nonzero"
         id="path15" />
    </clipPath>
    <clipPath
       id="392318604e">
      <path
         d="M 187.496094 76.921875 C 126.429688 76.921875 76.921875 126.429688 76.921875 187.496094 C 76.921875 248.5625 126.429688 298.066406 187.496094 298.066406 C 248.5625 298.066406 298.066406 248.5625 298.066406 187.496094 C 298.066406 126.429688 248.5625 76.921875 187.496094 76.921875 Z M 187.496094 76.921875 "
         clip-rule="nonzero"
         id="path16" />
    </clipPath>
    <clipPath
       id="c09d4aa3db">
      <path
         d="M 116.234375 151 L 258.734375 151 L 258.734375 264.238281 L 116.234375 264.238281 Z M 116.234375 151 "
         clip-rule="nonzero"
         id="path17" />
    </clipPath>
    <clipPath
       id="0f530c5566">
      <path
         d="M 90 173 L 148 173 L 148 281 L 90 281 Z M 90 173 "
         clip-rule="nonzero"
         id="path18" />
    </clipPath>
    <clipPath
       id="f61790c40d">
      <path
         d="M 142.578125 170.609375 L 147.785156 281.484375 L 93.847656 284.019531 L 88.640625 173.140625 Z M 142.578125 170.609375 "
         clip-rule="nonzero"
         id="path19" />
    </clipPath>
    <clipPath
       id="d6a9dfc0b7">
      <path
         d="M 142.578125 170.609375 L 147.785156 281.484375 L 93.847656 284.019531 L 88.640625 173.140625 Z M 142.578125 170.609375 "
         clip-rule="nonzero"
         id="path20" />
    </clipPath>
    <clipPath
       id="94510b7d66">
      <path
         d="M 225 169 L 285 169 L 285 283 L 225 283 Z M 225 169 "
         clip-rule="nonzero"
         id="path21" />
    </clipPath>
    <clipPath
       id="6708042939">
      <path
         d="M 284.71875 172.21875 L 279.523438 283.097656 L 225.582031 280.570312 L 230.78125 169.691406 Z M 284.71875 172.21875 "
         clip-rule="nonzero"
         id="path22" />
    </clipPath>
    <clipPath
       id="410eccd2d4">
      <path
         d="M 1 3 L 59 3 L 59 112 L 1 112 Z M 1 3 "
         clip-rule="nonzero"
         id="path23" />
    </clipPath>
    <clipPath
       id="7a0618c563">
      <path
         d="M 59.71875 3.21875 L 54.523438 114.097656 L 0.582031 111.570312 L 5.78125 0.691406 Z M 59.71875 3.21875 "
         clip-rule="nonzero"
         id="path24" />
    </clipPath>
    <clipPath
       id="fff87bd354">
      <path
         d="M 5.839844 0.695312 L 0.640625 111.574219 L 54.582031 114.101562 L 59.777344 3.222656 Z M 5.839844 0.695312 "
         clip-rule="nonzero"
         id="path25" />
    </clipPath>
    <clipPath
       id="e293281fff">
      <rect
         x="0"
         width="60"
         y="0"
         height="114"
         id="rect25" />
    </clipPath>
  </defs>
  <g
     clip-path="url(#f4df96ad50)"
     id="g40">
    <g
       clip-path="url(#22275ad1f1)"
       id="g39">
      <g
         transform="matrix(1, 0, 0, 1, 74, 74)"
         id="g38">
        <g
           clip-path="url(#e6f0be622f)"
           id="g37">
          <g
             clip-path="url(#b7272b859e)"
             id="g36">
            <g
               clip-path="url(#24e91d26d0)"
               id="g35">
              <path
                 fill="#ffffff"
                 d="M 0.753906 0.753906 L 226.246094 0.753906 L 226.246094 226.246094 L 0.753906 226.246094 Z M 0.753906 0.753906 "
                 fill-opacity="1"
                 fill-rule="nonzero"
                 id="path34" />
            </g>
          </g>
        </g>
      </g>
      <path
         stroke-linecap="butt"
         transform="matrix(0.75, 0, 0, 0.75, 74.753877, 74.753873)"
         fill="none"
         stroke-linejoin="miter"
         d="M 150.328174 0.0000447451 C 67.302126 0.0000447451 0.0000387451 67.302132 0.0000387451 150.32818 C 0.0000387451 233.354227 67.302126 300.656314 150.328174 300.656314 C 233.354221 300.656314 300.656308 233.354227 300.656308 150.32818 C 300.656308 67.302132 233.354221 0.0000447451 150.328174 0.0000447451 Z M 150.328174 0.0000447451 "
         stroke="#1b2845"
         stroke-width="6"
         stroke-opacity="1"
         stroke-miterlimit="4"
         id="path38" />
    </g>
  </g>
  <g
     clip-path="url(#de2ac133e4)"
     id="g46">
    <g
       clip-path="url(#ac893cd8d7)"
       id="g45">
      <g
         transform="matrix(1, 0, 0, 1, 76, 76)"
         id="g44">
        <g
           clip-path="url(#48ecbfe7fd)"
           id="g43">
          <g
             clip-path="url(#53d7cb9021)"
             id="g42">
            <g
               clip-path="url(#0b463d3a05)"
               id="g41">
              <path
                 fill="#1b2845"
                 d="M 0.921875 0.921875 L 222.078125 0.921875 L 222.078125 222.078125 L 0.921875 222.078125 Z M 0.921875 0.921875 "
                 fill-opacity="1"
                 fill-rule="nonzero"
                 id="path40" />
            </g>
          </g>
        </g>
      </g>
    </g>
  </g>
  <g
     clip-path="url(#cd05f385a9)"
     id="g48">
    <g
       clip-path="url(#392318604e)"
       id="g47">
      <path
         stroke-linecap="butt"
         transform="matrix(0.75, 0, 0, 0.75, 76.923244, 76.92324)"
         fill="none"
         stroke-linejoin="miter"
         d="M 147.430476 -0.00181967 C 66.008595 -0.00181967 -0.00182567 66.008601 -0.00182567 147.430482 C -0.00182567 228.852362 66.008595 294.857575 147.430476 294.857575 C 228.852356 294.857575 294.857569 228.852362 294.857569 147.430482 C 294.857569 66.008601 228.852356 -0.00181967 147.430476 -0.00181967 Z M 147.430476 -0.00181967 "
         stroke="#ffffff"
         stroke-width="4"
         stroke-opacity="1"
         stroke-miterlimit="4"
         id="path46" />
    </g>
  </g>
  <g
     fill="#ffffff"
     fill-opacity="1"
     id="g51">
    <g
       transform="translate(109.633675, 177.675152)"
       id="g50">
      <g
         id="g49">
        <path
           d="M 0.671875 -2.671875 L -21.15625 -8.125 L -19.40625 -15.125 L 2.421875 -9.671875 Z M 0.671875 -2.671875 "
           id="path48" />
      </g>
    </g>
  </g>
  <g
     fill="#ffffff"
     fill-opacity="1"
     id="g54">
    <g
       transform="translate(112.278109, 163.823087)"
       id="g53">
      <g
         id="g52">
        <path
           d="M 9.078125 -16.140625 L -5.078125 -13.265625 L 4.4375 -7.90625 L 1.1875 -2.109375 L -18.421875 -13.140625 L -15.328125 -18.640625 L -1.015625 -21.453125 L -10.6875 -26.890625 L -7.4375 -32.671875 L 12.171875 -21.640625 Z M 9.078125 -16.140625 "
           id="path51" />
      </g>
    </g>
  </g>
  <g
     fill="#ffffff"
     fill-opacity="1"
     id="g57">
    <g
       transform="translate(126.182804, 139.646008)"
       id="g56">
      <g
         id="g55">
        <path
           d="M 6.421875 -5.625 L -14.40625 -17.296875 L -8.59375 -22.375 L 4.703125 -14.03125 L 4.8125 -14.125 L -1.6875 -28.4375 L 3.875 -33.296875 L 12.71875 -11.140625 Z M 6.421875 -5.625 "
           id="path54" />
      </g>
    </g>
  </g>
  <g
     fill="#ffffff"
     fill-opacity="1"
     id="g60">
    <g
       transform="translate(146.10789, 122.561821)"
       id="g59">
      <g
         id="g58">
        <path
           d="M -6.546875 -21.65625 L 11.359375 -29.25 L 13.46875 -24.28125 L 2.203125 -19.515625 L 3.421875 -16.65625 L 13.0625 -20.734375 L 15.078125 -15.96875 L 5.4375 -11.890625 L 6.765625 -8.734375 L 18.25 -13.59375 L 20.359375 -8.625 L 2.234375 -0.9375 Z M -6.546875 -21.65625 "
           id="path57" />
      </g>
    </g>
  </g>
  <g
     fill="#ffffff"
     fill-opacity="1"
     id="g63">
    <g
       transform="translate(168.518347, 112.884527)"
       id="g62">
      <g
         id="g61">
        <path
           d="M 18.46875 -1.328125 L 8.265625 -11.546875 L 9.046875 -0.65625 L 2.421875 -0.171875 L 0.8125 -22.609375 L 7.109375 -23.0625 L 17.328125 -12.6875 L 16.53125 -23.75 L 23.15625 -24.21875 L 24.765625 -1.78125 Z M 18.46875 -1.328125 "
           id="path60" />
      </g>
    </g>
  </g>
  <g
     fill="#ffffff"
     fill-opacity="1"
     id="g66">
    <g
       transform="translate(196.419245, 111.293997)"
       id="g65">
      <g
         id="g64">
        <path
           d="M 19.125 -12.296875 L 14.875 3.90625 L 7.875 2.0625 L 12.125 -14.140625 L 4.96875 -16.015625 L 6.4375 -21.578125 L 27.703125 -15.984375 L 26.234375 -10.421875 Z M 19.125 -12.296875 "
           id="path63" />
      </g>
    </g>
  </g>
  <g
     fill="#ffffff"
     fill-opacity="1"
     id="g69">
    <g
       transform="translate(220.070204, 117.335459)"
       id="g68">
      <g
         id="g67">
        <path
           d="M 24 -11.546875 C 27.226562 -9.410156 29.171875 -6.925781 29.828125 -4.09375 C 30.492188 -1.269531 29.78125 1.71875 27.6875 4.875 C 25.59375 8.03125 23.113281 9.847656 20.25 10.328125 C 17.394531 10.816406 14.351562 9.992188 11.125 7.859375 C 7.882812 5.703125 5.929688 3.21875 5.265625 0.40625 C 4.609375 -2.394531 5.332031 -5.382812 7.4375 -8.5625 C 9.539062 -11.738281 12.015625 -13.566406 14.859375 -14.046875 C 17.710938 -14.535156 20.757812 -13.703125 24 -11.546875 Z M 21.015625 -7.046875 C 19.722656 -7.910156 18.476562 -8.175781 17.28125 -7.84375 C 16.09375 -7.507812 15.054688 -6.679688 14.171875 -5.359375 L 13.015625 -3.609375 C 12.128906 -2.285156 11.765625 -1.007812 11.921875 0.21875 C 12.085938 1.445312 12.816406 2.492188 14.109375 3.359375 C 15.390625 4.203125 16.628906 4.457031 17.828125 4.125 C 19.023438 3.800781 20.066406 2.976562 20.953125 1.65625 L 22.109375 -0.09375 C 22.992188 -1.414062 23.351562 -2.691406 23.1875 -3.921875 C 23.019531 -5.160156 22.296875 -6.203125 21.015625 -7.046875 Z M 21.015625 -7.046875 "
           id="path66" />
      </g>
    </g>
  </g>
  <g
     fill="#ffffff"
     fill-opacity="1"
     id="g72">
    <g
       transform="translate(243.165667, 132.972767)"
       id="g71">
      <g
         id="g70">
        <path
           d="M 26.765625 9.59375 C 25.671875 10.414062 24.453125 10.863281 23.109375 10.9375 C 21.773438 11.019531 20.476562 10.65625 19.21875 9.84375 L 14.703125 19.5 L 9.8125 13.03125 L 13.96875 4.90625 L 12.34375 2.765625 L 5.796875 7.703125 L 1.453125 1.9375 L 19.421875 -11.609375 L 27.71875 -0.625 C 28.6875 0.664062 29.265625 1.957031 29.453125 3.25 C 29.648438 4.539062 29.5 5.734375 29 6.828125 C 28.507812 7.921875 27.765625 8.84375 26.765625 9.59375 Z M 22.125 3.890625 C 22.582031 3.535156 22.847656 3.082031 22.921875 2.53125 C 22.992188 1.988281 22.859375 1.488281 22.515625 1.03125 L 19.65625 -2.75 L 16.359375 -0.25 L 19.21875 3.53125 C 19.5625 3.988281 20.007812 4.25 20.5625 4.3125 C 21.125 4.382812 21.644531 4.242188 22.125 3.890625 Z M 22.125 3.890625 "
           id="path69" />
      </g>
    </g>
  </g>
  <g
     fill="#ffffff"
     fill-opacity="1"
     id="g75">
    <g
       transform="translate(258.832164, 153.962433)"
       id="g74">
      <g
         id="g73">
        <path
           d="M 5.109375 15.578125 L 2.859375 8.703125 L 11.15625 5.984375 L 21.453125 -6.796875 L 24.03125 1.09375 L 18.265625 7.546875 L 18.3125 7.671875 L 26.765625 9.421875 L 29.21875 16.921875 L 13.40625 12.859375 Z M 5.109375 15.578125 "
           id="path72" />
      </g>
    </g>
  </g>
  <g
     clip-path="url(#c09d4aa3db)"
     id="g76">
    <path
       fill="#ffffff"
       d="M 258.652344 193.253906 C 258.082031 194.390625 257.867188 195.699219 256.640625 196.492188 C 254.570312 197.828125 252.59375 199.304688 250.582031 200.722656 C 249.796875 201.273438 249.023438 201.816406 248.113281 202.453125 C 248.152344 203.234375 248.1875 203.929688 248.230469 204.628906 C 248.402344 207.589844 248.597656 210.554688 248.746094 213.515625 C 248.9375 217.488281 249.113281 221.453125 249.253906 225.421875 C 249.363281 228.59375 249.414062 231.757812 249.464844 234.929688 C 249.472656 235.527344 249.40625 236.128906 249.378906 236.738281 C 249.332031 238.082031 248.804688 239.148438 247.679688 239.933594 C 246.035156 241.085938 244.433594 242.304688 242.773438 243.449219 C 234.308594 249.253906 225.566406 254.613281 216.519531 259.453125 C 214.125 260.730469 211.671875 261.890625 209.234375 263.089844 C 208.875 263.265625 208.5 263.425781 208.125 263.566406 C 206.980469 263.992188 205.824219 264.199219 204.585938 264.007812 C 203.300781 263.808594 201.992188 263.734375 200.691406 263.609375 C 198.1875 263.375 195.683594 263.183594 193.1875 262.90625 C 190.34375 262.589844 187.507812 262.222656 184.667969 261.832031 C 181.832031 261.4375 179.003906 261.003906 176.175781 260.554688 C 172.953125 260.035156 169.722656 259.535156 166.519531 258.917969 C 161.246094 257.890625 155.980469 256.824219 150.730469 255.6875 C 145.574219 254.578125 140.460938 253.320312 135.421875 251.765625 C 134.511719 251.484375 133.617188 251.175781 132.851562 250.546875 C 132.050781 249.90625 131.625 249.128906 131.605469 248.09375 C 131.582031 246.835938 131.464844 245.582031 131.429688 244.324219 C 131.296875 239.601562 131.179688 234.871094 131.054688 230.144531 C 130.9375 225.523438 130.832031 220.890625 130.707031 216.269531 C 130.6875 215.675781 130.730469 215.058594 130.414062 214.441406 C 128.726562 213.917969 127 213.398438 125.28125 212.839844 C 123.460938 212.257812 121.652344 211.664062 119.859375 211.019531 C 119.015625 210.710938 118.214844 210.285156 117.40625 209.878906 C 116.996094 209.667969 116.671875 209.351562 116.488281 208.917969 C 116.320312 208.535156 116.253906 208.167969 116.445312 207.757812 C 116.996094 206.632812 117.453125 205.445312 118.070312 204.363281 C 120.75 199.640625 123.453125 194.925781 126.574219 190.476562 C 127.265625 189.492188 127.984375 188.515625 128.6875 187.539062 C 128.886719 187.257812 129.085938 186.964844 129.269531 186.6875 C 129.195312 185.855469 128.703125 185.261719 128.285156 184.644531 C 126.417969 181.90625 124.523438 179.179688 122.636719 176.441406 C 121.808594 175.238281 120.96875 174.046875 120.175781 172.820312 C 119.847656 172.320312 119.625 171.75 119.390625 171.203125 C 119.171875 170.726562 119.347656 170.300781 119.75 170.015625 C 120.234375 169.664062 120.75 169.339844 121.269531 169.046875 C 124.320312 167.296875 127.507812 165.8125 130.707031 164.332031 C 139.101562 160.453125 147.710938 157.117188 156.414062 154.011719 C 158.300781 153.335938 160.253906 152.851562 162.171875 152.257812 C 162.875 152.042969 163.472656 152.199219 163.976562 152.703125 C 164.324219 153.050781 164.660156 153.4375 164.949219 153.84375 C 167.511719 157.390625 170.066406 160.945312 172.621094 164.492188 C 172.761719 164.691406 172.910156 164.894531 173.078125 165.125 C 173.597656 164.75 173.789062 164.226562 174.046875 163.757812 C 175.289062 161.453125 176.507812 159.144531 177.742188 156.839844 C 178.476562 155.472656 179.246094 154.113281 179.996094 152.742188 C 180.164062 152.433594 180.347656 152.132812 180.539062 151.84375 C 180.773438 151.492188 181.097656 151.265625 181.53125 151.234375 C 182.191406 151.175781 182.839844 151.097656 183.492188 151.109375 C 186.714844 151.167969 189.933594 151.214844 193.148438 151.339844 C 196.058594 151.449219 198.972656 151.640625 201.882812 151.816406 C 203.945312 151.933594 205.996094 152.058594 208.050781 152.21875 C 209.851562 152.351562 211.65625 152.527344 213.457031 152.691406 C 214.710938 152.808594 215.960938 152.910156 217.210938 153.042969 C 221.058594 153.46875 224.90625 153.851562 228.746094 154.363281 C 232.324219 154.835938 235.894531 155.457031 239.457031 156.039062 C 241.886719 156.441406 244.308594 156.855469 246.726562 157.324219 C 247.851562 157.542969 248.972656 157.859375 250.074219 158.199219 C 251.183594 158.550781 251.542969 159.328125 251.199219 160.429688 C 251.089844 160.761719 250.957031 161.085938 250.808594 161.40625 C 249.273438 164.734375 247.746094 168.070312 246.175781 171.382812 C 245.574219 172.652344 244.875 173.863281 244.191406 175.164062 C 244.464844 175.433594 244.734375 175.730469 245.03125 175.972656 C 246.84375 177.433594 248.445312 179.085938 249.871094 180.921875 C 252.308594 184.058594 254.761719 187.179688 257.175781 190.34375 C 257.691406 191.019531 258.082031 191.785156 258.5 192.53125 C 258.625 192.746094 258.742188 193.082031 258.652344 193.253906 Z M 258.652344 193.253906 "
       fill-opacity="1"
       fill-rule="nonzero"
       id="path75" />
  </g>
  <path
     fill="#ffffff"
     d="M 240.652344 175.324219 C 240.960938 175.40625 241.269531 175.480469 241.59375 175.558594 C 241.5625 175.574219 241.527344 175.589844 241.496094 175.605469 C 233.257812 179.578125 225.191406 183.894531 217.136719 188.230469 C 213.25 190.335938 209.34375 192.414062 205.445312 194.5 C 204.828125 194.832031 204.203125 195.175781 203.550781 195.425781 C 202.667969 195.765625 201.765625 195.902344 200.78125 195.691406 C 198.964844 195.308594 197.117188 195.066406 195.285156 194.765625 C 192.414062 194.296875 189.535156 193.824219 186.65625 193.363281 C 184.425781 193.003906 182.191406 192.671875 179.953125 192.328125 C 177.777344 191.996094 175.597656 191.660156 173.34375 191.3125 C 173.304688 190.976562 173.230469 190.695312 173.238281 190.410156 C 173.304688 186.636719 173.363281 182.867188 173.453125 179.09375 C 173.519531 176.222656 173.644531 173.363281 173.296875 170.5 C 173.246094 170.109375 173.269531 169.683594 172.835938 169.457031 C 172.519531 169.523438 172.453125 169.757812 172.484375 170.023438 C 172.84375 172.679688 172.6875 175.347656 172.628906 178.011719 C 172.570312 180.773438 172.445312 183.542969 172.371094 186.304688 C 172.335938 187.566406 172.335938 188.816406 172.3125 190.078125 C 172.300781 190.367188 172.277344 190.660156 172.253906 191.035156 C 171.953125 191.042969 171.710938 191.09375 171.476562 191.0625 C 168.097656 190.578125 164.71875 190.058594 161.339844 189.59375 C 158.449219 189.191406 155.5625 188.816406 152.667969 188.484375 C 150.222656 188.207031 147.761719 188.023438 145.316406 187.78125 C 142.863281 187.539062 140.417969 187.273438 137.972656 186.996094 C 136.179688 186.796875 134.386719 186.554688 132.589844 186.339844 C 132.492188 186.328125 132.375 186.296875 132.289062 186.339844 C 132.242188 186.363281 132.191406 186.394531 132.140625 186.421875 C 132.175781 185.847656 132.609375 185.238281 133.042969 184.703125 C 133.332031 184.734375 133.5 184.785156 133.644531 184.734375 C 134.027344 184.609375 134.386719 184.425781 134.753906 184.269531 C 138.558594 182.566406 142.355469 180.863281 146.152344 179.152344 C 152.925781 176.117188 159.6875 173.035156 166.628906 170.382812 C 167.988281 169.867188 169.339844 169.332031 170.691406 168.789062 C 171.101562 168.621094 171.484375 168.390625 171.867188 168.164062 C 172.71875 168.3125 173.5625 168.496094 174.414062 168.605469 C 174.363281 168.632812 174.3125 168.65625 174.253906 168.679688 C 175.066406 168.855469 175.5 168.980469 175.933594 169.046875 C 179.671875 169.566406 183.433594 169.683594 187.199219 169.957031 C 189.351562 170.117188 191.511719 170.214844 193.664062 170.359375 C 195.066406 170.449219 196.46875 170.574219 197.871094 170.699219 C 199.523438 170.851562 201.167969 171.007812 202.816406 171.175781 C 205.214844 171.410156 207.617188 171.636719 210.011719 171.894531 C 212.15625 172.128906 214.300781 172.410156 216.4375 172.667969 C 219.125 173.003906 221.820312 173.335938 224.503906 173.6875 C 227.394531 174.0625 230.28125 174.445312 233.167969 174.839844 C 235.011719 175.089844 236.847656 175.355469 238.683594 175.597656 C 239.125 175.65625 239.585938 175.671875 240.035156 175.683594 C 240.183594 175.691406 240.351562 175.671875 240.46875 175.597656 C 240.542969 175.539062 240.609375 175.433594 240.652344 175.324219 Z M 240.652344 175.324219 "
     fill-opacity="1"
     fill-rule="nonzero"
     id="path76" />
  <path
     fill="#1b2845"
     d="M 133.433594 248.9375 C 133.265625 245.175781 133.109375 241.503906 132.949219 237.839844 C 132.917969 237.089844 132.890625 236.328125 132.875 235.578125 C 132.75 231.207031 132.667969 226.824219 132.492188 222.453125 C 132.40625 220.242188 132.164062 218.039062 132 215.835938 C 131.980469 215.59375 131.972656 215.351562 131.957031 215.167969 C 132.25 214.859375 132.484375 215.007812 132.707031 215.066406 C 140.660156 217.386719 148.679688 219.472656 156.738281 221.402344 C 162.546875 222.796875 168.390625 224.070312 174.253906 225.207031 C 177.308594 225.800781 180.371094 226.375 183.441406 226.902344 C 184.726562 227.117188 186.039062 227.183594 187.339844 227.316406 C 187.488281 227.335938 187.640625 227.324219 187.789062 227.324219 C 189.71875 227.375 191.128906 226.648438 192.054688 224.847656 C 193.574219 221.894531 195.007812 218.90625 196.226562 215.820312 C 198.3125 210.535156 200.238281 205.195312 201.933594 199.773438 C 202.035156 199.445312 202.175781 199.128906 202.359375 198.65625 C 202.59375 199.011719 202.769531 199.230469 202.894531 199.472656 C 203.550781 200.714844 204.1875 201.96875 204.847656 203.21875 C 207.015625 207.359375 209.160156 211.511719 211.386719 215.628906 C 212.246094 217.210938 213.273438 218.714844 214.292969 220.207031 C 214.675781 220.785156 215.210938 221.269531 215.734375 221.726562 C 216.3125 222.21875 217.019531 222.335938 217.722656 222.027344 C 218.597656 221.644531 219.472656 221.25 220.273438 220.75 C 223.65625 218.664062 227.050781 216.59375 230.363281 214.417969 C 235.402344 211.097656 240.375 207.683594 245.375 204.3125 C 245.777344 204.046875 246.203125 203.792969 246.601562 203.542969 C 246.710938 203.710938 246.808594 203.785156 246.808594 203.871094 C 246.859375 205.078125 246.917969 206.28125 246.933594 207.492188 C 247.0625 217.644531 247.519531 227.792969 247.570312 237.957031 C 247.195312 238.25 246.894531 238.507812 246.566406 238.734375 C 236.445312 245.675781 226.039062 252.160156 215.183594 257.890625 C 212.921875 259.085938 210.59375 260.167969 208.308594 261.3125 C 207.589844 261.671875 206.90625 262.082031 206.023438 262.574219 C 205.496094 262.515625 204.753906 262.429688 204.011719 262.347656 C 201.867188 262.089844 199.722656 261.820312 197.578125 261.5625 C 195.683594 261.328125 193.789062 261.105469 191.894531 260.855469 C 189.160156 260.496094 186.421875 260.128906 183.683594 259.726562 C 181.007812 259.335938 178.328125 258.910156 175.648438 258.460938 C 171.933594 257.832031 168.222656 257.214844 164.515625 256.523438 C 158.550781 255.398438 152.609375 254.121094 146.703125 252.683594 C 142.246094 251.625 137.804688 250.546875 133.433594 248.9375 Z M 202.359375 203.394531 C 202.042969 203.703125 202.007812 203.9375 202.015625 204.1875 C 202.050781 205.398438 202.074219 206.597656 202.132812 207.808594 C 202.265625 210.570312 202.425781 213.332031 202.566406 216.09375 C 202.710938 218.855469 202.835938 221.617188 202.96875 224.378906 C 203.070312 226.390625 203.175781 228.394531 203.277344 230.40625 C 203.4375 233.566406 203.644531 236.730469 203.746094 239.902344 C 203.886719 244.375 203.945312 248.855469 204.0625 253.328125 C 204.101562 254.886719 204.210938 256.441406 204.296875 258 C 204.3125 258.25 204.363281 258.5 204.453125 258.734375 C 204.503906 258.851562 204.6875 258.992188 204.796875 258.976562 C 204.972656 258.953125 205.214844 258.84375 205.261719 258.710938 C 205.378906 258.382812 205.457031 258.035156 205.464844 257.683594 C 205.488281 255.972656 205.539062 254.261719 205.480469 252.550781 C 205.347656 248.578125 205.164062 244.617188 204.988281 240.644531 C 204.871094 237.980469 204.738281 235.320312 204.59375 232.65625 C 204.503906 230.847656 204.386719 229.046875 204.269531 227.234375 C 204.019531 223.320312 203.753906 219.40625 203.496094 215.492188 C 203.261719 212.03125 203.035156 208.566406 202.792969 205.113281 C 202.769531 204.5625 202.785156 204.003906 202.359375 203.394531 Z M 202.359375 203.394531 "
     fill-opacity="1"
     fill-rule="nonzero"
     id="path77" />
  <path
     fill="#1b2845"
     d="M 248.914062 161.070312 C 247.050781 165.191406 245.167969 169.308594 243.296875 173.421875 C 243.070312 173.921875 242.855469 174.429688 242.578125 175.066406 C 242.320312 175.199219 241.960938 175.382812 241.59375 175.558594 C 241.277344 175.480469 240.960938 175.398438 240.652344 175.324219 C 240.660156 175.296875 240.667969 175.273438 240.675781 175.238281 C 240.695312 175.179688 240.59375 175.046875 240.511719 175.007812 C 240.335938 174.921875 240.144531 174.855469 239.949219 174.832031 C 238.507812 174.621094 237.074219 174.421875 235.628906 174.230469 C 233.734375 173.980469 231.847656 173.746094 229.953125 173.496094 C 228.058594 173.246094 226.175781 172.980469 224.289062 172.726562 C 222.34375 172.476562 220.398438 172.234375 218.464844 172.003906 C 216.371094 171.742188 214.285156 171.460938 212.1875 171.242188 C 209.644531 170.976562 207.089844 170.765625 204.539062 170.535156 C 201.742188 170.273438 198.9375 169.972656 196.144531 169.75 C 193.089844 169.507812 190.027344 169.308594 186.972656 169.15625 C 182.957031 168.957031 178.945312 168.773438 174.949219 168.347656 C 174.847656 168.339844 174.738281 168.421875 174.40625 168.597656 C 173.554688 168.488281 172.710938 168.304688 171.859375 168.15625 C 171.867188 168.15625 171.867188 168.148438 171.878906 168.148438 C 171.945312 168.113281 172.003906 167.9375 171.96875 167.898438 C 171.894531 167.789062 171.742188 167.628906 171.660156 167.65625 C 170.882812 167.839844 170.082031 167.980469 169.347656 168.28125 C 165.8125 169.699219 162.257812 171.085938 158.777344 172.636719 C 151.03125 176.089844 143.332031 179.636719 135.613281 183.152344 C 134.929688 183.460938 134.242188 183.769531 133.566406 184.109375 C 133.542969 184.117188 133.515625 184.136719 133.5 184.152344 C 133.507812 184.144531 133.507812 184.144531 133.515625 184.136719 C 133.507812 184.144531 133.507812 184.144531 133.5 184.152344 C 133.332031 184.261719 133.175781 184.433594 132.882812 184.6875 C 132.941406 184.695312 132.992188 184.695312 133.050781 184.703125 C 132.617188 185.246094 132.183594 185.847656 132.148438 186.421875 C 131.980469 186.511719 131.824219 186.605469 131.722656 186.746094 C 131.566406 186.980469 131.714844 187.355469 132 187.515625 C 132.214844 187.640625 132.441406 187.75 132.683594 187.816406 C 133.359375 188 134.042969 188.207031 134.734375 188.308594 C 136.472656 188.566406 138.222656 188.773438 139.96875 188.992188 C 142.261719 189.265625 144.558594 189.527344 146.859375 189.785156 C 148.90625 190.019531 150.957031 190.234375 153 190.492188 C 155.839844 190.851562 158.683594 191.21875 161.523438 191.613281 C 163.859375 191.929688 166.195312 192.28125 168.53125 192.621094 C 170.765625 192.957031 173.003906 193.296875 175.230469 193.640625 C 177.46875 193.988281 179.695312 194.347656 181.933594 194.699219 C 184.117188 195.042969 186.296875 195.390625 188.484375 195.734375 C 190.761719 196.09375 193.046875 196.460938 195.324219 196.808594 C 196.519531 196.992188 197.710938 197.175781 198.90625 197.328125 C 199.597656 197.417969 200.296875 197.445312 201.082031 197.511719 C 201.066406 197.726562 201.082031 197.921875 201.023438 198.085938 C 198.847656 203.820312 196.695312 209.5625 194.472656 215.269531 C 193.378906 218.082031 192.085938 220.808594 190.660156 223.460938 C 190.183594 224.347656 189.691406 225.222656 188.851562 225.875 C 188.597656 225.847656 188.347656 225.847656 188.105469 225.800781 C 185.59375 225.324219 183.074219 224.839844 180.5625 224.355469 C 176.667969 223.605469 172.761719 222.910156 168.882812 222.09375 C 159.792969 220.191406 150.765625 217.996094 141.796875 215.578125 C 134.859375 213.707031 127.960938 211.746094 121.125 209.535156 C 119.992188 209.167969 118.824219 208.851562 117.796875 208.140625 C 117.871094 207.976562 117.90625 207.816406 117.996094 207.714844 C 119.132812 206.480469 119.957031 205.046875 120.75 203.585938 C 123.613281 198.320312 126.71875 193.207031 130.195312 188.332031 C 131.039062 187.15625 130.957031 185.988281 130.554688 184.761719 C 130.378906 184.242188 130.113281 183.742188 129.8125 183.285156 C 128.820312 181.765625 127.84375 180.238281 126.773438 178.785156 C 124.871094 176.191406 122.910156 173.636719 120.96875 171.058594 C 121.125 170.558594 121.625 170.492188 122.003906 170.300781 C 127.140625 167.65625 132.417969 165.292969 137.75 163.066406 C 143.957031 160.46875 150.273438 158.132812 156.597656 155.839844 C 158.484375 155.15625 160.363281 154.453125 162.304688 153.734375 C 163.875 155.832031 165.445312 157.925781 166.996094 160.019531 C 168.40625 161.914062 169.800781 163.824219 171.210938 165.726562 C 171.359375 165.925781 171.5 166.136719 171.652344 166.335938 C 172.429688 167.320312 172.761719 167.371094 173.804688 166.753906 C 174.339844 166.4375 174.746094 166.003906 175.066406 165.476562 C 175.566406 164.660156 176.050781 163.839844 176.515625 163.007812 C 178.359375 159.71875 180.1875 156.421875 182.03125 153.128906 C 182.125 152.960938 182.242188 152.800781 182.367188 152.609375 C 184.351562 152.710938 186.304688 152.800781 188.257812 152.902344 C 188.808594 152.925781 189.359375 152.984375 189.910156 153.011719 C 192.773438 153.144531 195.640625 153.242188 198.503906 153.410156 C 200.515625 153.527344 202.507812 153.726562 204.519531 153.886719 C 206.273438 154.019531 208.035156 154.128906 209.785156 154.277344 C 211.488281 154.421875 213.191406 154.597656 214.894531 154.761719 C 216.09375 154.878906 217.296875 154.988281 218.488281 155.136719 C 221.734375 155.53125 224.972656 155.921875 228.210938 156.332031 C 233.84375 157.03125 239.433594 158.015625 245.015625 159.035156 C 246.441406 159.292969 247.878906 159.511719 249.3125 159.753906 C 249.378906 160.304688 249.089844 160.679688 248.914062 161.070312 Z M 256.707031 192.988281 C 255.273438 191.050781 253.863281 189.089844 252.375 187.179688 C 250.53125 184.792969 248.65625 182.433594 246.734375 180.105469 C 245.683594 178.828125 244.5 177.660156 243.273438 176.648438 C 243.128906 176.648438 243.070312 176.632812 243.039062 176.648438 C 232.507812 182.214844 221.984375 187.789062 211.445312 193.332031 C 208.960938 194.640625 206.398438 195.808594 203.871094 197.042969 C 203.828125 197.070312 203.777344 197.09375 203.746094 197.128906 C 203.703125 197.160156 203.667969 197.195312 203.644531 197.234375 C 203.621094 197.269531 203.621094 197.320312 203.609375 197.335938 C 207.933594 205.121094 211.921875 213.066406 216.570312 220.726562 C 217.003906 220.542969 217.378906 220.417969 217.714844 220.226562 C 218.457031 219.800781 219.191406 219.367188 219.90625 218.898438 C 224.605469 215.792969 229.320312 212.714844 233.976562 209.542969 C 241.703125 204.285156 249.378906 198.964844 257.117188 193.648438 C 256.972656 193.40625 256.855469 193.1875 256.707031 192.988281 Z M 256.707031 192.988281 "
     fill-opacity="1"
     fill-rule="nonzero"
     id="path78" />
  <g
     clip-path="url(#0f530c5566)"
     id="g81">
    <g
       clip-path="url(#f61790c40d)"
       id="g80">
      <g
         clip-path="url(#d6a9dfc0b7)"
         id="g79">
        <path
           fill="#ffffff"
           d="M 97.8125 173.179688 C 96.683594 172.773438 95.4375 173.363281 95.03125 174.492188 C 91.332031 184.789062 89.757812 195.734375 90.265625 206.585938 C 90.777344 217.4375 93.320312 227.980469 97.886719 237.804688 C 107.058594 257.550781 124.023438 273.230469 144.425781 280.828125 C 145.550781 281.246094 146.804688 280.671875 147.226562 279.546875 C 147.644531 278.421875 147.070312 277.167969 145.945312 276.746094 C 126.605469 269.550781 110.527344 254.6875 101.832031 235.972656 C 93.136719 217.257812 92.152344 195.386719 99.125 175.964844 C 99.53125 174.832031 98.945312 173.585938 97.8125 173.179688 Z M 97.8125 173.179688 "
           fill-opacity="1"
           fill-rule="nonzero"
           id="path79" />
      </g>
    </g>
  </g>
  <g
     fill="#ffffff"
     fill-opacity="1"
     id="g84">
    <g
       transform="translate(148.1874, 286.346814)"
       id="g83">
      <g
         id="g82">
        <path
           d="M 10.453125 -6.25 L 4.75 -7.859375 L 3.90625 -4.890625 L 9.25 -3.375 L 8.9375 -2.25 L 3.59375 -3.765625 L 2.65625 -0.46875 L 8.5625 1.203125 L 8.25 2.328125 L 1.0625 0.296875 L 3.78125 -9.359375 L 10.765625 -7.390625 Z M 10.453125 -6.25 "
           id="path81" />
      </g>
    </g>
  </g>
  <g
     fill="#ffffff"
     fill-opacity="1"
     id="g87">
    <g
       transform="translate(158.890575, 289.288665)"
       id="g86">
      <g
         id="g85">
        <path
           d="M 6.359375 -9.15625 C 7.484375 -8.9375 8.320312 -8.503906 8.875 -7.859375 C 9.425781 -7.210938 9.632812 -6.429688 9.5 -5.515625 L 8.234375 -5.671875 C 8.285156 -6.316406 8.144531 -6.828125 7.8125 -7.203125 C 7.476562 -7.578125 6.941406 -7.835938 6.203125 -7.984375 C 5.484375 -8.117188 4.898438 -8.09375 4.453125 -7.90625 C 4.003906 -7.71875 3.738281 -7.394531 3.65625 -6.9375 C 3.601562 -6.644531 3.644531 -6.378906 3.78125 -6.140625 C 3.914062 -5.910156 4.132812 -5.71875 4.4375 -5.5625 C 4.507812 -5.53125 4.765625 -5.398438 5.203125 -5.171875 C 5.640625 -4.941406 6.207031 -4.675781 6.90625 -4.375 C 7.738281 -4.03125 8.320312 -3.566406 8.65625 -2.984375 C 8.988281 -2.410156 9.09375 -1.804688 8.96875 -1.171875 C 8.863281 -0.640625 8.625 -0.175781 8.25 0.21875 C 7.882812 0.625 7.398438 0.90625 6.796875 1.0625 C 6.191406 1.21875 5.515625 1.226562 4.765625 1.09375 C 3.898438 0.925781 3.179688 0.644531 2.609375 0.25 C 2.046875 -0.144531 1.644531 -0.625 1.40625 -1.1875 C 1.164062 -1.75 1.101562 -2.367188 1.21875 -3.046875 L 2.484375 -2.90625 C 2.390625 -2.125 2.585938 -1.492188 3.078125 -1.015625 C 3.566406 -0.546875 4.1875 -0.238281 4.9375 -0.09375 C 5.695312 0.0507812 6.328125 0.0078125 6.828125 -0.21875 C 7.335938 -0.445312 7.640625 -0.828125 7.734375 -1.359375 C 7.878906 -2.085938 7.394531 -2.703125 6.28125 -3.203125 L 5.546875 -3.546875 C 5.078125 -3.742188 4.550781 -3.992188 3.96875 -4.296875 C 3.375 -4.609375 2.9375 -5.015625 2.65625 -5.515625 C 2.382812 -6.023438 2.300781 -6.5625 2.40625 -7.125 C 2.507812 -7.632812 2.738281 -8.066406 3.09375 -8.421875 C 3.445312 -8.785156 3.898438 -9.03125 4.453125 -9.15625 C 5.015625 -9.289062 5.648438 -9.289062 6.359375 -9.15625 Z M 6.359375 -9.15625 "
           id="path84" />
      </g>
    </g>
  </g>
  <g
     fill="#ffffff"
     fill-opacity="1"
     id="g90">
    <g
       transform="translate(169.802787, 291.280601)"
       id="g89">
      <g
         id="g88">
        <path
           d="M 9.140625 -7.921875 L 5.828125 -8.28125 L 4.90625 0.515625 L 3.59375 0.375 L 4.515625 -8.421875 L 1.234375 -8.765625 L 1.359375 -9.9375 L 9.265625 -9.09375 Z M 9.140625 -7.921875 "
           id="path87" />
      </g>
    </g>
  </g>
  <g
     fill="#ffffff"
     fill-opacity="1"
     id="g93">
    <g
       transform="translate(180.018708, 292.234267)"
       id="g92">
      <g
         id="g91">
        <path
           d="M 2.640625 0.109375 L 1.25 0.046875 L 1.3125 -1.359375 L 2.703125 -1.296875 Z M 2.640625 0.109375 "
           id="path90" />
      </g>
    </g>
  </g>
  <g
     fill="#ffffff"
     fill-opacity="1"
     id="g96">
    <g
       transform="translate(185.5779, 292.439453)"
       id="g95">
      <g
         id="g94" />
    </g>
  </g>
  <g
     fill="#ffffff"
     fill-opacity="1"
     id="g99">
    <g
       transform="translate(191.175372, 292.446791)"
       id="g98">
      <g
         id="g97">
        <path
           d="M 3.28125 -10.28125 C 3.90625 -10.3125 4.460938 -10.21875 4.953125 -10 C 5.441406 -9.789062 5.820312 -9.484375 6.09375 -9.078125 C 6.375 -8.679688 6.523438 -8.234375 6.546875 -7.734375 C 6.578125 -7.191406 6.472656 -6.675781 6.234375 -6.1875 C 6.003906 -5.695312 5.707031 -5.253906 5.34375 -4.859375 C 4.976562 -4.460938 4.519531 -4 3.96875 -3.46875 C 3.40625 -2.9375 2.976562 -2.519531 2.6875 -2.21875 C 2.40625 -1.914062 2.1875 -1.609375 2.03125 -1.296875 L 6.9375 -1.578125 L 7 -0.40625 L 0.390625 -0.015625 C 0.359375 -0.585938 0.535156 -1.179688 0.921875 -1.796875 C 1.304688 -2.410156 1.84375 -3.039062 2.53125 -3.6875 C 3.207031 -4.320312 3.738281 -4.84375 4.125 -5.25 C 4.507812 -5.664062 4.804688 -6.066406 5.015625 -6.453125 C 5.222656 -6.847656 5.316406 -7.242188 5.296875 -7.640625 C 5.265625 -8.140625 5.0625 -8.546875 4.6875 -8.859375 C 4.3125 -9.171875 3.859375 -9.304688 3.328125 -9.265625 C 2.773438 -9.234375 2.320312 -9.035156 1.96875 -8.671875 C 1.613281 -8.304688 1.453125 -7.789062 1.484375 -7.125 L 0.203125 -7.1875 C 0.234375 -8.132812 0.519531 -8.867188 1.0625 -9.390625 C 1.601562 -9.921875 2.34375 -10.21875 3.28125 -10.28125 Z M 3.28125 -10.28125 "
           id="path96" />
      </g>
    </g>
  </g>
  <g
     fill="#ffffff"
     fill-opacity="1"
     id="g102">
    <g
       transform="translate(200.674421, 291.823837)"
       id="g101">
      <g
         id="g100">
        <path
           d="M 2.53125 -10.484375 C 3.582031 -10.628906 4.441406 -10.316406 5.109375 -9.546875 C 5.773438 -8.785156 6.222656 -7.550781 6.453125 -5.84375 C 6.679688 -4.144531 6.570312 -2.835938 6.125 -1.921875 C 5.6875 -1.015625 4.941406 -0.488281 3.890625 -0.34375 C 1.722656 -0.0507812 0.414062 -1.59375 -0.03125 -4.96875 C -0.25 -6.632812 -0.148438 -7.929688 0.265625 -8.859375 C 0.691406 -9.796875 1.445312 -10.335938 2.53125 -10.484375 Z M 1.21875 -5.140625 C 1.394531 -3.785156 1.6875 -2.789062 2.09375 -2.15625 C 2.5 -1.53125 3.050781 -1.265625 3.75 -1.359375 C 4.445312 -1.453125 4.90625 -1.851562 5.125 -2.5625 C 5.351562 -3.28125 5.378906 -4.316406 5.203125 -5.671875 C 5.015625 -7.097656 4.707031 -8.113281 4.28125 -8.71875 C 3.863281 -9.332031 3.316406 -9.59375 2.640625 -9.5 C 1.953125 -9.40625 1.5 -9 1.28125 -8.28125 C 1.0625 -7.5625 1.039062 -6.515625 1.21875 -5.140625 Z M 1.21875 -5.140625 "
           id="path99" />
      </g>
    </g>
  </g>
  <g
     fill="#ffffff"
     fill-opacity="1"
     id="g105">
    <g
       transform="translate(210.101188, 290.498614)"
       id="g104">
      <g
         id="g103">
        <path
           d="M 1.734375 -10.640625 C 2.347656 -10.773438 2.910156 -10.769531 3.421875 -10.625 C 3.929688 -10.488281 4.351562 -10.242188 4.6875 -9.890625 C 5.019531 -9.535156 5.234375 -9.113281 5.328125 -8.625 C 5.441406 -8.09375 5.421875 -7.566406 5.265625 -7.046875 C 5.109375 -6.535156 4.878906 -6.050781 4.578125 -5.59375 C 4.273438 -5.144531 3.882812 -4.617188 3.40625 -4.015625 C 2.925781 -3.410156 2.566406 -2.9375 2.328125 -2.59375 C 2.097656 -2.25 1.925781 -1.910156 1.8125 -1.578125 L 6.625 -2.578125 L 6.859375 -1.4375 L 0.375 -0.078125 C 0.257812 -0.640625 0.347656 -1.25 0.640625 -1.90625 C 0.929688 -2.570312 1.367188 -3.273438 1.953125 -4.015625 C 2.535156 -4.742188 2.984375 -5.335938 3.296875 -5.796875 C 3.617188 -6.265625 3.851562 -6.707031 4 -7.125 C 4.15625 -7.539062 4.191406 -7.941406 4.109375 -8.328125 C 4.003906 -8.816406 3.742188 -9.1875 3.328125 -9.4375 C 2.921875 -9.695312 2.453125 -9.773438 1.921875 -9.671875 C 1.378906 -9.554688 0.957031 -9.289062 0.65625 -8.875 C 0.351562 -8.457031 0.265625 -7.921875 0.390625 -7.265625 L -0.859375 -7.140625 C -0.972656 -8.078125 -0.796875 -8.84375 -0.328125 -9.4375 C 0.128906 -10.039062 0.816406 -10.441406 1.734375 -10.640625 Z M 1.734375 -10.640625 "
           id="path102" />
      </g>
    </g>
  </g>
  <g
     fill="#ffffff"
     fill-opacity="1"
     id="g108">
    <g
       transform="translate(219.403818, 288.478407)"
       id="g107">
      <g
         id="g106">
        <path
           d="M 4.078125 -10.234375 L 0.234375 -9.125 L 0.453125 -6.390625 C 0.921875 -6.960938 1.472656 -7.335938 2.109375 -7.515625 C 2.648438 -7.671875 3.1875 -7.6875 3.71875 -7.5625 C 4.25 -7.445312 4.71875 -7.191406 5.125 -6.796875 C 5.539062 -6.398438 5.832031 -5.894531 6 -5.28125 C 6.195312 -4.632812 6.226562 -4.007812 6.09375 -3.40625 C 5.957031 -2.800781 5.6875 -2.273438 5.28125 -1.828125 C 4.875 -1.378906 4.363281 -1.070312 3.75 -0.90625 C 2.875 -0.644531 2.082031 -0.675781 1.375 -1 C 0.664062 -1.320312 0.15625 -1.882812 -0.15625 -2.6875 L 1.03125 -3.140625 C 1.300781 -2.578125 1.640625 -2.1875 2.046875 -1.96875 C 2.460938 -1.757812 2.921875 -1.726562 3.421875 -1.875 C 4.023438 -2.039062 4.453125 -2.394531 4.703125 -2.9375 C 4.953125 -3.488281 4.96875 -4.140625 4.75 -4.890625 C 4.570312 -5.492188 4.234375 -5.941406 3.734375 -6.234375 C 3.242188 -6.523438 2.691406 -6.582031 2.078125 -6.40625 C 1.609375 -6.269531 1.257812 -6.050781 1.03125 -5.75 C 0.800781 -5.457031 0.65625 -5.191406 0.59375 -4.953125 L -0.53125 -4.78125 L -1.03125 -10 L 3.75 -11.375 Z M 4.078125 -10.234375 "
           id="path105" />
      </g>
    </g>
  </g>
  <g
     clip-path="url(#94510b7d66)"
     id="g115">
    <g
       clip-path="url(#6708042939)"
       id="g114">
      <g
         transform="matrix(1, 0, 0, 1, 225, 169)"
         id="g113">
        <g
           clip-path="url(#e293281fff)"
           id="g112">
          <g
             clip-path="url(#410eccd2d4)"
             id="g111">
            <g
               clip-path="url(#7a0618c563)"
               id="g110">
              <g
                 clip-path="url(#fff87bd354)"
                 id="g109">
                <path
                   fill="#ffffff"
                   d="M 50.605469 3.261719 C 51.734375 2.855469 52.980469 3.445312 53.386719 4.574219 C 57.085938 14.871094 58.664062 25.816406 58.15625 36.667969 C 57.644531 47.519531 55.101562 58.0625 50.539062 67.890625 C 41.367188 87.636719 24.40625 103.316406 4 110.914062 C 2.875 111.332031 1.621094 110.757812 1.203125 109.632812 C 0.785156 108.507812 1.355469 107.253906 2.484375 106.835938 C 21.820312 99.636719 37.898438 84.769531 46.589844 66.054688 C 55.285156 47.339844 56.265625 25.46875 49.292969 6.046875 C 48.886719 4.914062 49.472656 3.667969 50.605469 3.261719 Z M 50.605469 3.261719 "
                   fill-opacity="1"
                   fill-rule="nonzero"
                   id="path108" />
              </g>
            </g>
          </g>
        </g>
      </g>
    </g>
  </g>
</svg>
